<svg width="560" height="220" viewBox="0 0 560 220" fill="none" xmlns="http://www.w3.org/2000/svg" role="img" aria-labelledby="title desc">
  <title id="title">agent-project-copilot</title>
  <desc id="desc">协作型 Agent 项目交付协作 任务拆解 · 风险跟踪 · 周报复盘</desc>
  <rect width="560" height="220" rx="24" fill="#fffdf7"/>
  <path d="M29 25C99 18 171 27 244 21C332 14 425 20 532 27C539 79 531 138 536 196C442 203 351 197 274 202C184 207 96 197 29 201C20 142 27 84 29 25Z" fill="#fff7fb" stroke="#fb7185" stroke-width="5" stroke-linecap="round" stroke-linejoin="round"/>
  <circle cx="63" cy="62" r="24" fill="#111827"/>
  <text x="53" y="73" fill="#fffdf7" font-family="Comic Sans MS, Chalkboard SE, ui-sans-serif, sans-serif" font-size="30" font-weight="800">7</text>
  <rect x="92" y="48" width="126" height="28" rx="14" fill="#e0f2fe" stroke="#111827" stroke-width="2"/>
  <text x="107" y="68" fill="#111827" font-family="Comic Sans MS, Chalkboard SE, ui-sans-serif, sans-serif" font-size="17" font-weight="800">协作型 Agent</text>
  <g transform="translate(381 50)">
    <rect x="0" y="19" width="148" height="122" rx="10" fill="#e0f2fe" stroke="#111827" stroke-width="5"/>
    <path d="M25 44h24M70 44h24M115 44h14" stroke="#111827" stroke-width="5" stroke-linecap="round"/>
    <rect x="19" y="66" width="38" height="44" rx="7" fill="#bfdbfe" stroke="#111827" stroke-width="4"/>
    <rect x="66" y="66" width="38" height="44" rx="7" fill="#ccfbf1" stroke="#111827" stroke-width="4"/>
    <rect x="113" y="66" width="38" height="44" rx="7" fill="#fde68a" stroke="#111827" stroke-width="4"/>
    <path d="M27 127c33-12 81-12 112 0" stroke="#fb7185" stroke-width="6" stroke-linecap="round"/>
  </g>
  <text x="92" y="107" fill="#111827" font-family="Comic Sans MS, Chalkboard SE, ui-sans-serif, sans-serif" font-size="30" font-weight="800">agent-project</text>
  <text x="92" y="137" fill="#111827" font-family="Comic Sans MS, Chalkboard SE, ui-sans-serif, sans-serif" font-size="30" font-weight="800">copilot</text>
  <text x="92" y="165" fill="#374151" font-family="Comic Sans MS, Chalkboard SE, ui-sans-serif, sans-serif" font-size="22" font-weight="800">项目交付协作</text>
  <text x="92" y="193" fill="#6b7280" font-family="Comic Sans MS, Chalkboard SE, ui-sans-serif, sans-serif" font-size="18" font-weight="700">任务拆解 · 风险跟踪 · 周报复盘</text>
  <g transform="translate(23 94) scale(0.55)">
    <path d="M25 5c9-8 24-5 31 2 9 8 8 24 1 32-8 9-25 9-34 1-10-9-8-27 2-35Z" fill="#ffd43b" stroke="#111827" stroke-width="3" stroke-linejoin="round"/>
    <path d="M20 23c7-5 11-16 19-17 5 9 13 10 24 17" stroke="#111827" stroke-width="3" stroke-linecap="round" fill="none"/>
    <circle cx="34" cy="30" r="2.7" fill="#111827"/><circle cx="50" cy="30" r="2.7" fill="#111827"/>
    <path d="M38 43c5 3 10 3 15 0" stroke="#111827" stroke-width="2.5" stroke-linecap="round" fill="none"/>
    <path d="M27 38l-7 4M59 38l7 4" stroke="#fb7185" stroke-width="2" stroke-linecap="round"/>
    <path d="M23 64c14-12 42-12 55 1l10 42H12l11-43Z" fill="#111827" stroke="#111827" stroke-width="4" stroke-linejoin="round"/>
    <path d="M35 68c6 8 16 8 22 0" stroke="#4b5563" stroke-width="3" stroke-linecap="round"/>
  </g>
</svg>
