<svg width="560" height="220" viewBox="0 0 560 220" fill="none" xmlns="http://www.w3.org/2000/svg" role="img" aria-labelledby="title desc">
  <title id="title">anjing-link</title>
  <desc id="desc">两台 Mac 之间极简、快速的局域网文件投递工具。</desc>
  <rect width="560" height="220" rx="24" fill="#fffdf7"/>
  <path d="M29 25C99 18 171 27 244 21C332 14 425 20 532 27C539 79 531 138 536 196C442 203 351 197 274 202C184 207 96 197 29 201C20 142 27 84 29 25Z" fill="#f5f3ff" stroke="#8b7cf6" stroke-width="5" stroke-linecap="round" stroke-linejoin="round"/>
  <circle cx="63" cy="62" r="24" fill="#111827"/>
  <text x="53" y="73" fill="#fffdf7" font-family="Comic Sans MS, Chalkboard SE, ui-sans-serif, sans-serif" font-size="30" font-weight="800">2</text>

  <g transform="translate(374 48)">
    <rect x="0" y="18" width="76" height="52" rx="8" fill="#fffdf7" stroke="#111827" stroke-width="5"/>
    <path d="M-8 79h92" stroke="#111827" stroke-width="5" stroke-linecap="round"/>
    <rect x="106" y="54" width="62" height="43" rx="7" fill="#d8fff3" stroke="#111827" stroke-width="5"/>
    <path d="M100 105h74" stroke="#111827" stroke-width="5" stroke-linecap="round"/>
    <path d="M70 42c18-17 39-11 48 5" stroke="#8b7cf6" stroke-width="6" stroke-linecap="round" fill="none"/>
    <path d="M108 34l12 14-17 9" stroke="#8b7cf6" stroke-width="6" stroke-linecap="round" stroke-linejoin="round" fill="none"/>
    <circle cx="88" cy="76" r="8" fill="#34d399" stroke="#111827" stroke-width="4"/>
  </g>

  <text x="92" y="91" fill="#111827" font-family="Comic Sans MS, Chalkboard SE, ui-sans-serif, sans-serif" font-size="36" font-weight="800">anjing-link</text>
  <text x="92" y="132" fill="#374151" font-family="Comic Sans MS, Chalkboard SE, ui-sans-serif, sans-serif" font-size="22" font-weight="800">双 Mac 局域网投递</text>
  <text x="92" y="166" fill="#6b7280" font-family="Comic Sans MS, Chalkboard SE, ui-sans-serif, sans-serif" font-size="18" font-weight="700">发现 · 配对 · 传输 · 接收</text>

  <g transform="translate(23 94) scale(0.55)">
    <path d="M25 5c9-8 24-5 31 2 9 8 8 24 1 32-8 9-25 9-34 1-10-9-8-27 2-35Z" fill="#ffd43b" stroke="#111827" stroke-width="3" stroke-linejoin="round"/>
    <path d="M20 23c7-5 11-16 19-17 5 9 13 10 24 17" stroke="#111827" stroke-width="3" stroke-linecap="round" fill="none"/>
    <circle cx="34" cy="30" r="2.7" fill="#111827"/><circle cx="50" cy="30" r="2.7" fill="#111827"/>
    <path d="M38 43c5 3 10 3 15 0" stroke="#111827" stroke-width="2.5" stroke-linecap="round" fill="none"/>
    <path d="M27 38l-7 4M59 38l7 4" stroke="#fb7185" stroke-width="2" stroke-linecap="round"/>
    <path d="M23 64c14-12 42-12 55 1l10 42H12l11-43Z" fill="#111827" stroke="#111827" stroke-width="4" stroke-linejoin="round"/>
    <path d="M35 68c6 8 16 8 22 0" stroke="#4b5563" stroke-width="3" stroke-linecap="round"/>
  </g>
</svg>
