<svg width="560" height="220" viewBox="0 0 560 220" fill="none" xmlns="http://www.w3.org/2000/svg" role="img" aria-labelledby="title desc">
  <title id="title">BitBun</title>
  <desc id="desc">两台 Mac 之间极简、快速的局域网文件、文字和图片传输工具。</desc>
  <rect width="560" height="220" rx="24" fill="#fffdf7"/>
  <path d="M29 25C99 18 171 27 244 21C332 14 425 20 532 27C539 79 531 138 536 196C442 203 351 197 274 202C184 207 96 197 29 201C20 142 27 84 29 25Z" fill="#f5f3ff" stroke="#8b7cf6" stroke-width="5" stroke-linecap="round" stroke-linejoin="round"/>
  <g transform="translate(374 48)">
    <rect x="0" y="18" width="76" height="52" rx="8" fill="#fffdf7" stroke="#111827" stroke-width="5"/>
    <path d="M-8 79h92" stroke="#111827" stroke-width="5" stroke-linecap="round"/>
    <rect x="106" y="54" width="62" height="43" rx="7" fill="#d8fff3" stroke="#111827" stroke-width="5"/>
    <path d="M100 105h74" stroke="#111827" stroke-width="5" stroke-linecap="round"/>
    <path d="M70 42c18-17 39-11 48 5" stroke="#8b7cf6" stroke-width="6" stroke-linecap="round" fill="none"/>
    <path d="M108 34l12 14-17 9" stroke="#8b7cf6" stroke-width="6" stroke-linecap="round" stroke-linejoin="round" fill="none"/>
    <circle cx="88" cy="76" r="8" fill="#34d399" stroke="#111827" stroke-width="4"/>
  </g>

  <text x="60" y="91" fill="#111827" font-family="Comic Sans MS, Chalkboard SE, ui-sans-serif, sans-serif" font-size="36" font-weight="800">BitBun</text>
  <text x="60" y="132" fill="#374151" font-family="Comic Sans MS, Chalkboard SE, ui-sans-serif, sans-serif" font-size="22" font-weight="800">文件 · 文字 · 图片</text>
  <text x="60" y="166" fill="#6b7280" font-family="Comic Sans MS, Chalkboard SE, ui-sans-serif, sans-serif" font-size="18" font-weight="700">局域网直达 · 无云端</text>
</svg>
