<svg width="560" height="220" viewBox="0 0 560 220" fill="none" xmlns="http://www.w3.org/2000/svg" role="img" aria-labelledby="title desc">
  <title id="title">agent-customer-service</title>
  <desc id="desc">A hand-drawn card for the AI customer service project.</desc>
  <rect width="560" height="220" rx="22" fill="#fffdf7"/>
  <path d="M27 25C98 18 169 27 240 22C328 16 428 20 532 27C540 80 531 138 536 196C442 203 350 197 274 202C185 207 96 197 29 201C20 142 28 84 27 25Z" fill="#f0fdfa" stroke="#2dd4bf" stroke-width="5" stroke-linecap="round" stroke-linejoin="round"/>
  <circle cx="66" cy="62" r="24" fill="#111827"/>
  <text x="52" y="73" fill="#fffdf7" font-family="Comic Sans MS, Chalkboard SE, ui-sans-serif, sans-serif" font-size="30" font-weight="800">8</text>
  <path d="M371 69h132c13 0 23 10 23 23v38c0 13-10 23-23 23h-56l-32 24 8-24h-52c-13 0-23-10-23-23V92c0-13 10-23 23-23Z" fill="#ccfbf1" stroke="#111827" stroke-width="4" stroke-linejoin="round"/>
  <path d="M383 100h96M383 124h67" stroke="#0f766e" stroke-width="5" stroke-linecap="round"/>
  <text x="56" y="116" fill="#111827" font-family="Comic Sans MS, Chalkboard SE, ui-sans-serif, sans-serif" font-size="34" font-weight="800">agent-customer</text>
  <text x="56" y="150" fill="#111827" font-family="Comic Sans MS, Chalkboard SE, ui-sans-serif, sans-serif" font-size="34" font-weight="800">service</text>
  <text x="58" y="182" fill="#374151" font-family="Comic Sans MS, Chalkboard SE, ui-sans-serif, sans-serif" font-size="21" font-weight="700">智能电商客服 · RAG + 规则兜底</text>
</svg>
